<?xml version="1.0" encoding="utf-8"?>
<!-- Generator: Adobe Illustrator 25.2.0, SVG Export Plug-In . SVG Version: 6.00 Build 0)  -->
<svg version="1.1" id="Calque_1" focusable="false" xmlns="http://www.w3.org/2000/svg" xmlns:xlink="http://www.w3.org/1999/xlink"
	 x="0px" y="0px" viewBox="0 0 320 342.3" style="enable-background:new 0 0 320 342.3;" xml:space="preserve">
<style type="text/css">
	.st0{fill:#F2F2F2;}
</style>
<path class="st0" d="M143,31.7L33,132.3c-9.4,9.4-9.4,24.6,0,33.9l-3.4-2.9c9.4,9.4,24.6,9.4,33.9,0l96.4-96.4l96.4,96.4
	c9.4,9.4,24.6,9.4,33.9,0l-3.2,3c9.4-9.4,9.4-24.6,0-33.9L160,17.1l0,0L143,31.7z"/>
<path class="st0" d="M143,157.6L33,258.1c-9.4,9.4-9.4,24.6,0,33.9l-3.4-2.9c9.4,9.4,24.6,9.4,33.9,0l96.4-96.4l96.4,96.4
	c9.4,9.4,24.6,9.4,33.9,0l-3.2,3c9.4-9.4,9.4-24.6,0-33.9L160,142.9l0,0L143,157.6z"/>
</svg>
