<?xml version="1.0" encoding="utf-8"?>
<!-- Generator: Adobe Illustrator 16.0.0, SVG Export Plug-In . SVG Version: 6.00 Build 0)  -->
<!DOCTYPE svg PUBLIC "-//W3C//DTD SVG 1.1//EN" "http://www.w3.org/Graphics/SVG/1.1/DTD/svg11.dtd">
<svg version="1.1" id="Calque_1" xmlns="http://www.w3.org/2000/svg" xmlns:xlink="http://www.w3.org/1999/xlink" x="0px" y="0px"
	 width="595.28125px" height="17.16748px" viewBox="0 0 595.28125 17.16748" style="enable-background:new 0 0 595.28125 17.16748;"
	 xml:space="preserve">
<path style="fill:#3B8A8A;" d="M255.14111-27.25v6.63818c-10.47314,0-10.47314,12.37207-20.94922,12.37207
	s-10.47705-12.37207-20.94873-12.37207c-10.47314,0-10.47314,12.37207-20.95117,12.37207
	c-10.47119,0-10.47119-12.37207-20.94824-12.37207c-10.47168,0-10.47168,12.37207-20.94287,12.37207
	c-10.4707,0-10.47168-12.37207-20.94873-12.37207c-10.47217,0-10.47217,12.37207-20.94238,12.37207
	c-10.47266,0-10.47266-12.37207-20.94287-12.37207c-10.479,0-10.479,12.37207-20.94971,12.37207
	c-10.47119,0-10.47412-12.37305-20.94531-12.37305c-10.47168,0-10.47168,12.37158-20.94873,12.37158
	C14.25-8.24121,14.25-20.61279,3.77979-20.61279c-10.47266,0-10.47266,12.37158-20.94287,12.37158
	c-10.47168,0-10.47168-12.37158-20.94385-12.37158S-48.5791-8.24121-59.05713-8.24121
	c-10.47168,0-10.47168-12.37158-20.94287-12.37158v-6.63818h335.14111V-27.25z"/>
<path style="fill:#292929;" d="M318.30762,0.16309c-10.47168,0-10.03516,17.00439-20.50684,17.00439
	c-10.47266,0-10.47266-17.00439-20.94385-17.00439"/>
<path style="fill:#292929;" d="M276.85693,0.25781c0,0,16.08496-6.375,20.9502-3.46973
	c4.86475,2.90625,17.85205,3.375,21.69775,3.375c0.57324,0-2.14551,0-2.14551,0"/>
<line style="fill:none;stroke:#292929;stroke-miterlimit:10;" x1="0" y1="0.16406" x2="595.28125" y2="0.16406"/>
</svg>
