<?xml version="1.0" encoding="utf-8"?>
<!-- Generator: Adobe Illustrator 16.0.0, SVG Export Plug-In . SVG Version: 6.00 Build 0)  -->
<!DOCTYPE svg PUBLIC "-//W3C//DTD SVG 1.1//EN" "http://www.w3.org/Graphics/SVG/1.1/DTD/svg11.dtd">
<svg version="1.1" id="Calque_1" xmlns="http://www.w3.org/2000/svg" xmlns:xlink="http://www.w3.org/1999/xlink" x="0px" y="0px"
	 width="595.281px" height="17.167px" viewBox="0 0 595.281 17.167" enable-background="new 0 0 595.281 17.167"
	 xml:space="preserve">
<path fill="#3B8A8A" d="M255.141-27.25v6.638c-10.473,0-10.473,12.372-20.949,12.372s-10.477-12.372-20.949-12.372
	c-10.473,0-10.473,12.372-20.951,12.372c-10.471,0-10.471-12.372-20.948-12.372c-10.472,0-10.472,12.372-20.943,12.372
	c-10.471,0-10.472-12.372-20.949-12.372c-10.472,0-10.472,12.372-20.942,12.372c-10.473,0-10.473-12.372-20.943-12.372
	c-10.479,0-10.479,12.372-20.95,12.372c-10.471,0-10.474-12.373-20.945-12.373C35.2-20.613,35.2-8.241,24.723-8.241
	C14.25-8.241,14.25-20.613,3.78-20.613c-10.473,0-10.473,12.372-20.943,12.372c-10.472,0-10.472-12.372-20.944-12.372
	S-48.579-8.241-59.057-8.241c-10.472,0-10.472-12.372-20.943-12.372v-6.638L255.141-27.25L255.141-27.25z"/>
<path fill="#E6B244" d="M318.308-0.126c-10.472,0-10.035,17.002-20.507,17.002c-10.473,0-10.473-17.002-20.944-17.002"/>
<path fill="#E6B244" d="M276.857-0.031c0,0,16.085-6.375,20.95-3.47c4.865,2.906,17.852,3.375,21.698,3.375c0.573,0-2.146,0-2.146,0
	"/>
</svg>
