<?xml version="1.0" encoding="utf-8"?>
<!-- Generator: Adobe Illustrator 16.0.0, SVG Export Plug-In . SVG Version: 6.00 Build 0)  -->
<!DOCTYPE svg PUBLIC "-//W3C//DTD SVG 1.1//EN" "http://www.w3.org/Graphics/SVG/1.1/DTD/svg11.dtd">
<svg version="1.1" id="Calque_1" xmlns="http://www.w3.org/2000/svg" xmlns:xlink="http://www.w3.org/1999/xlink" x="0px" y="0px"
	 width="595.28125px" height="27.75px" viewBox="0 0 595.28125 27.75" style="enable-background:new 0 0 595.28125 27.75;"
	 xml:space="preserve">
<path style="fill:#3B8A8A;" d="M360.1416,8.35986v6.63721c-10.47266,0-10.47266,12.36914-20.94824,12.36914
	c-10.47656,0-10.47754-12.36914-20.94922-12.36914s-10.47363,12.36914-20.9502,12.36914
	c-10.47119,0-10.47119-12.36914-20.94922-12.36914c-10.47168,0-10.47168,12.36914-20.94287,12.36914
	c-10.4707,0-10.47168-12.36914-20.94873-12.36914c-10.47217,0-10.47217,12.36914-20.94336,12.36914
	c-10.47168,0-10.47168-12.36914-20.94287-12.36914c-10.47803,0-10.47803,12.36914-20.94971,12.36914
	c-10.47119,0-10.47119-12.36914-20.94336-12.36914c-10.47168,0-10.47168,12.36914-20.94873,12.36914
	c-10.47217,0-10.47217-12.36914-20.94336-12.36914c-10.4707,0-10.47266,12.36914-20.94482,12.36914
	c-10.47168,0-10.47168-12.36914-20.94287-12.36914S56.42188,27.36621,45.94482,27.36621
	c-10.47168,0-10.47168-12.36914-20.94287-12.36914V8.35986H360.1416z"/>
<path style="fill:#3B8A8A;" d="M692.1416,8.35986v6.63721c-10.47266,0-10.47266,12.36914-20.94824,12.36914
	c-10.47656,0-10.47754-12.36914-20.94922-12.36914s-10.47168,12.36914-20.94922,12.36914
	c-10.4707,0-10.4707-12.36914-20.94922-12.36914c-10.4707,0-10.4707,12.36914-20.94238,12.36914
	c-10.4707,0-10.4707-12.36914-20.94922-12.36914c-10.4707,0-10.4707,12.36914-20.94238,12.36914
	c-10.4707,0-10.47168-12.36914-20.94238-12.36914c-10.47852,0-10.47852,12.36914-20.9502,12.36914
	c-10.4707,0-10.4707-12.36914-20.94238-12.36914c-10.4707,0-10.47168,12.36914-20.94824,12.36914
	c-10.47266,0-10.47266-12.36914-20.94336-12.36914s-10.47168,12.36914-20.94336,12.36914
	c-10.4707,0-10.47168-12.36914-20.94238-12.36914c-10.47168,0-10.47266,12.36914-20.94922,12.36914
	c-10.47168,0-10.47168-12.36914-20.94336-12.36914V8.35986H692.1416z"/>
<path style="fill:#3B8A8A;" d="M65.14209,8.35986v6.63721c-10.47314,0-10.47314,12.36914-20.94922,12.36914
	S33.71582,14.99707,23.24414,14.99707c-10.47217,0-10.47217,12.36914-20.94922,12.36914
	c-10.4707,0-10.4707-12.36914-20.94873-12.36914c-10.47119,0-10.47119,12.36914-20.94336,12.36914
	c-10.4707,0-10.4707-12.36914-20.94873-12.36914c-10.47119,0-10.47119,12.36914-20.94189,12.36914
	c-10.47119,0-10.47217-12.36914-20.94336-12.36914c-10.47803,0-10.47803,12.36914-20.94971,12.36914
	c-10.47119,0-10.47119-12.36914-20.94238-12.36914c-10.4707,0-10.47168,12.36914-20.94873,12.36914
	c-10.47217,0-10.47217-12.36914-20.94287-12.36914c-10.47119,0-10.47217,12.36914-20.94336,12.36914
	c-10.4707,0-10.47168-12.36914-20.94287-12.36914c-10.4707,0-10.47168,12.36914-20.94873,12.36914
	c-10.47217,0-10.47217-12.36914-20.94336-12.36914V8.35986H65.14209z"/>
<polygon style="fill:#3B8A8A;" points="0,-96 297.64014,-54.5 595.28125,-96 "/>
<rect x="-9.35986" y="-0.39014" style="fill:#3B8A8A;" width="643.00146" height="9.75098"/>
</svg>
