<?xml version="1.0" encoding="utf-8"?>
<!-- Generator: Adobe Illustrator 16.0.0, SVG Export Plug-In . SVG Version: 6.00 Build 0)  -->
<!DOCTYPE svg PUBLIC "-//W3C//DTD SVG 1.1//EN" "http://www.w3.org/Graphics/SVG/1.1/DTD/svg11.dtd">
<svg version="1.1" id="Calque_1" xmlns="http://www.w3.org/2000/svg" xmlns:xlink="http://www.w3.org/1999/xlink" x="0px" y="0px"
	 width="595.281px" height="27.75px" viewBox="0 94 595.281 27.75" enable-background="new 0 94 595.281 27.75"
	 xml:space="preserve">
<path fill="#3B8A8A" d="M360.142,100v6.638c-10.473,0-10.473,12.372-20.949,12.372s-10.477-12.372-20.949-12.372
	s-10.473,12.372-20.95,12.372c-10.471,0-10.471-12.372-20.949-12.372c-10.472,0-10.472,12.372-20.943,12.372
	s-10.472-12.372-20.949-12.372c-10.472,0-10.472,12.372-20.943,12.372c-10.472,0-10.472-12.372-20.943-12.372
	c-10.478,0-10.478,12.372-20.95,12.372c-10.471,0-10.471-12.372-20.943-12.372s-10.472,12.372-20.949,12.372
	c-10.472,0-10.472-12.372-20.943-12.372S98.309,119.01,87.837,119.01s-10.472-12.372-20.943-12.372S56.422,119.01,45.945,119.01
	c-10.472,0-10.472-12.372-20.943-12.372V100H360.142z"/>
<path fill="#3B8A8A" d="M692.142,100v6.638c-10.473,0-10.473,12.372-20.949,12.372s-10.477-12.372-20.949-12.372
	c-10.472,0-10.472,12.372-20.949,12.372c-10.471,0-10.471-12.372-20.949-12.372c-10.471,0-10.471,12.372-20.943,12.372
	c-10.471,0-10.471-12.372-20.949-12.372c-10.471,0-10.471,12.372-20.942,12.372s-10.472-12.372-20.943-12.372
	c-10.478,0-10.478,12.372-20.95,12.372c-10.471,0-10.471-12.372-20.942-12.372s-10.472,12.372-20.949,12.372
	c-10.472,0-10.472-12.372-20.943-12.372s-10.472,12.372-20.943,12.372s-10.472-12.372-20.943-12.372s-10.472,12.372-20.949,12.372
	c-10.472,0-10.472-12.372-20.943-12.372V100H692.142z"/>
<path fill="#3B8A8A" d="M65.142,100v6.638c-10.473,0-10.473,12.372-20.949,12.372s-10.477-12.372-20.949-12.372
	c-10.472,0-10.472,12.372-20.949,12.372c-10.471,0-10.471-12.372-20.949-12.372c-10.471,0-10.471,12.372-20.943,12.372
	c-10.471,0-10.471-12.372-20.949-12.372c-10.471,0-10.471,12.372-20.942,12.372s-10.472-12.372-20.943-12.372
	c-10.478,0-10.478,12.372-20.95,12.372c-10.471,0-10.471-12.372-20.942-12.372s-10.472,12.372-20.949,12.372
	c-10.472,0-10.472-12.372-20.943-12.372s-10.472,12.372-20.943,12.372s-10.472-12.372-20.943-12.372s-10.472,12.372-20.949,12.372
	c-10.472,0-10.472-12.372-20.943-12.372V100H65.142z"/>
<polygon fill="#3B8A8A" points="0,0 297.64,41.5 595.281,0 "/>
<rect x="-9.36" y="91.25" fill="#3B8A8A" width="643.002" height="9.751"/>
</svg>
